<svg width="12" height="13" viewBox="0 0 12 13" fill="none" xmlns="http://www.w3.org/2000/svg">
<path d="M11.2128 5.06563C11.1659 4.91796 11.0754 4.78792 10.9533 4.69256C10.8312 4.59721 10.6831 4.54098 10.5284 4.53125L7.74407 4.33906L6.71282 1.7375C6.65651 1.59425 6.5585 1.4712 6.43147 1.38429C6.30444 1.29737 6.15424 1.25059 6.00032 1.25C5.8464 1.25059 5.69621 1.29737 5.56918 1.38429C5.44215 1.4712 5.34413 1.59425 5.28782 1.7375L4.23782 4.35312L1.4722 4.53125C1.31775 4.54161 1.16996 4.59807 1.04795 4.69334C0.925938 4.78861 0.835322 4.9183 0.787822 5.06563C0.739044 5.21521 0.736194 5.37598 0.77964 5.52721C0.823085 5.67843 0.910834 5.81317 1.03157 5.91406L3.1597 7.71406L2.52688 10.2031C2.4831 10.3715 2.49098 10.5492 2.5495 10.713C2.60801 10.8769 2.71446 11.0193 2.85501 11.1219C2.99143 11.2198 3.15396 11.2748 3.32181 11.2798C3.48966 11.2848 3.65518 11.2396 3.7972 11.15L5.99563 9.75781H6.00501L8.3722 11.2531C8.49363 11.332 8.63519 11.3743 8.78001 11.375C8.89825 11.3741 9.01471 11.346 9.12042 11.2931C9.22614 11.2401 9.3183 11.1636 9.38983 11.0694C9.46135 10.9753 9.51033 10.866 9.53301 10.7499C9.55569 10.6339 9.55145 10.5142 9.52064 10.4L8.85032 7.67656L10.9691 5.91406C11.0898 5.81317 11.1776 5.67843 11.221 5.52721C11.2645 5.37598 11.2616 5.21521 11.2128 5.06563Z" fill="#1D2939"/>
</svg>
