<svg width="120" height="120" viewBox="0 0 120 120" fill="none" xmlns="http://www.w3.org/2000/svg">
<path d="M95 75C83.95 75 75 83.95 75 95C75 98.75 76.0501 102.3 77.9001 105.3C81.3501 111.1 87.7 115 95 115C102.3 115 108.65 111.1 112.1 105.3C113.95 102.3 115 98.75 115 95C115 83.95 106.05 75 95 75ZM105.35 92.85L94.7 102.7C94 103.35 93.05 103.7 92.15 103.7C91.2 103.7 90.2501 103.35 89.5001 102.6L84.5499 97.65C83.0999 96.2 83.0999 93.8 84.5499 92.35C85.9999 90.9 88.3999 90.9 89.8499 92.35L92.2501 94.75L100.25 87.35C101.75 85.95 104.15 86.05 105.55 87.55C106.95 89.05 106.85 91.4 105.35 92.85Z" fill="white"/>
<path d="M110 37.7V45H10V37.7C10 26.25 19.3001 17 30.7501 17H89.2499C100.7 17 110 26.25 110 37.7Z" fill="white"/>
<path opacity="0.4" d="M10 45V82.3C10 93.75 19.2501 103 30.7001 103H62.0001C64.9001 103 67.4 100.55 67.15 97.65C66.45 90 68.9001 81.7 75.7001 75.1C78.5001 72.35 81.9501 70.25 85.7001 69.05C91.9501 67.05 97.9999 67.3 103.35 69.1C106.6 70.2 110 67.85 110 64.4V45H10ZM40 86.25H30C27.95 86.25 26.25 84.55 26.25 82.5C26.25 80.45 27.95 78.75 30 78.75H40C42.05 78.75 43.75 80.45 43.75 82.5C43.75 84.55 42.05 86.25 40 86.25Z" fill="white"/>
<path d="M43.75 82.5C43.75 84.55 42.05 86.25 40 86.25H30C27.95 86.25 26.25 84.55 26.25 82.5C26.25 80.45 27.95 78.75 30 78.75H40C42.05 78.75 43.75 80.45 43.75 82.5Z" fill="white"/>
</svg>
