<svg width="272" height="60" viewBox="0 0 272 60" fill="none" xmlns="http://www.w3.org/2000/svg">
<rect width="3" height="60" fill="#1D2939"/>
<rect x="9" width="1" height="60" fill="#1D2939"/>
<rect x="16" width="3" height="60" fill="#1D2939"/>
<rect x="25" width="2" height="60" fill="#1D2939"/>
<rect x="33" width="1" height="60" fill="#1D2939"/>
<rect x="40" width="3" height="60" fill="#1D2939"/>
<rect x="49" width="1" height="60" fill="#1D2939"/>
<rect x="56" width="5" height="60" fill="#1D2939"/>
<rect x="67" width="1" height="60" fill="#1D2939"/>
<rect x="74" width="2" height="60" fill="#1D2939"/>
<rect x="82" width="2" height="60" fill="#1D2939"/>
<rect x="90" width="4" height="60" fill="#1D2939"/>
<rect x="100" width="4" height="60" fill="#1D2939"/>
<rect x="110" width="4" height="60" fill="#1D2939"/>
<rect x="120" width="1" height="60" fill="#1D2939"/>
<rect x="127" width="3" height="60" fill="#1D2939"/>
<rect x="134" width="7" height="60" fill="#1D2939"/>
<rect x="147" width="2" height="60" fill="#1D2939"/>
<rect x="155" width="4" height="60" fill="#1D2939"/>
<rect x="165" width="1" height="60" fill="#1D2939"/>
<rect x="172" width="1" height="60" fill="#1D2939"/>
<rect x="179" width="2" height="60" fill="#1D2939"/>
<rect x="187" width="5" height="60" fill="#1D2939"/>
<rect x="198" width="2" height="60" fill="#1D2939"/>
<rect x="206" width="1" height="60" fill="#1D2939"/>
<rect x="213" width="5" height="60" fill="#1D2939"/>
<rect x="224" width="2" height="60" fill="#1D2939"/>
<rect x="232" width="3" height="60" fill="#1D2939"/>
<rect x="241" width="1" height="60" fill="#1D2939"/>
<rect x="248" width="5" height="60" fill="#1D2939"/>
<rect x="259" width="2" height="60" fill="#1D2939"/>
<rect x="267" width="5" height="60" fill="#1D2939"/>
</svg>
