<svg width="24" height="24" viewBox="0 0 24 24" fill="none" xmlns="http://www.w3.org/2000/svg">
<path d="M4.85626 11.4282C4.74546 11.2361 4.59791 11.0678 4.42204 10.9328C4.24618 10.7977 4.04544 10.6986 3.83128 10.6412C3.61713 10.5837 3.39375 10.569 3.17391 10.5979C2.95407 10.6268 2.74207 10.6987 2.55001 10.8095C2.35795 10.9203 2.1896 11.0678 2.05456 11.2437C1.91953 11.4195 1.82045 11.6203 1.76299 11.8344C1.70554 12.0486 1.69083 12.272 1.7197 12.4918C1.74857 12.7116 1.82046 12.9236 1.93126 13.1157L5.40001 19.1251C6.30429 20.6571 7.77681 21.7702 9.49738 22.2223C11.218 22.6745 13.0475 22.4291 14.5881 21.5396C16.1287 20.65 17.2559 19.1883 17.7245 17.4721C18.1931 15.7559 17.9653 13.9242 17.0906 12.3751L15.4969 9.60945C15.2594 9.25125 14.8941 8.99717 14.4757 8.89905C14.0572 8.80094 13.6171 8.86619 13.2451 9.08148C12.8732 9.29678 12.5974 9.64589 12.474 10.0576C12.3506 10.4693 12.389 10.9126 12.5813 11.297" stroke="#FFF8FC" stroke-width="1.5" stroke-linecap="round" stroke-linejoin="round"/>
<path d="M10.0312 13.6404L6.46875 7.47164C6.35794 7.27958 6.2104 7.11123 6.03453 6.97619C5.85867 6.84116 5.65792 6.74208 5.44377 6.68463C5.22961 6.62717 5.00624 6.61246 4.7864 6.64133C4.56656 6.6702 4.35456 6.74209 4.1625 6.85289C3.97044 6.96369 3.80209 7.11124 3.66705 7.28711C3.53201 7.46297 3.43294 7.66371 3.37548 7.87787C3.31803 8.09202 3.30331 8.3154 3.33218 8.53524C3.36106 8.75508 3.43294 8.96708 3.54375 9.15914L7.10625 15.3279" stroke="#FFF8FC" stroke-width="1.5" stroke-linecap="round" stroke-linejoin="round"/>
<path d="M14.0812 13.9031L10.1437 7.07809C9.91996 6.69021 9.55127 6.40711 9.11876 6.29107C8.68626 6.17504 8.22537 6.23556 7.83749 6.45934C7.44961 6.68312 7.16651 7.05181 7.05047 7.48432C6.93444 7.91682 6.99496 8.37771 7.21874 8.76559" stroke="#FFF8FC" stroke-width="1.5" stroke-linecap="round" stroke-linejoin="round"/>
<path d="M9.28124 6.34703L8.31561 4.66891C8.09184 4.28103 7.72314 3.99793 7.29064 3.8819C6.85813 3.76586 6.39724 3.82638 6.00936 4.05016C5.62149 4.27394 5.33839 4.64263 5.22235 5.07514C5.10631 5.50764 5.16684 5.96853 5.39061 6.35641L5.61561 6.74079" stroke="#FFF8FC" stroke-width="1.5" stroke-linecap="round" stroke-linejoin="round"/>
<path d="M17.625 17.9529C18.7692 16.9168 19.5244 15.5203 19.7648 13.9955C20.0053 12.4708 19.7167 10.9096 18.9469 9.57164L17.3531 6.81539C17.2423 6.62333 17.0948 6.45498 16.9189 6.31994C16.7431 6.18491 16.5423 6.08583 16.3282 6.02838C16.114 5.97092 15.8906 5.95621 15.6708 5.98508C15.451 6.01395 15.239 6.08584 15.0469 6.19664C14.8548 6.30744 14.6865 6.45499 14.5514 6.63086C14.4164 6.80672 14.3173 7.00746 14.2599 7.22162C14.2024 7.43577 14.1877 7.65915 14.2166 7.87899C14.2455 8.09883 14.3173 8.31083 14.4281 8.50289" stroke="#FFF8FC" stroke-width="1.5" stroke-linecap="round" stroke-linejoin="round"/>
<path d="M14.6437 8.87789L11.9906 4.28414C11.7668 3.89627 11.3981 3.61317 10.9656 3.49713C10.5331 3.38109 10.0722 3.44162 9.68435 3.66539C9.29647 3.88917 9.01338 4.25787 8.89734 4.69037C8.7813 5.12288 8.84183 5.58377 9.0656 5.97164" stroke="#FFF8FC" stroke-width="1.5" stroke-linecap="round" stroke-linejoin="round"/>
<path d="M16.575 1.05957L16.1906 2.50332" stroke="#FFF8FC" stroke-width="1.5" stroke-linecap="round" stroke-linejoin="round"/>
<path d="M19.4156 2.38135L18.5531 3.60947" stroke="#FFF8FC" stroke-width="1.5" stroke-linecap="round" stroke-linejoin="round"/>
<path d="M21.6188 4.58447L20.3906 5.44697" stroke="#FFF8FC" stroke-width="1.5" stroke-linecap="round" stroke-linejoin="round"/>
</svg>
