<svg width="36" height="24" viewBox="0 0 36 24" fill="none" xmlns="http://www.w3.org/2000/svg">
<g clip-path="url(#clip0_1365_6115)">
<path d="M0 3C0 1.34315 1.34315 0 3 0H33C34.6569 0 36 1.34315 36 3V21C36 22.6569 34.6569 24 33 24H3C1.34315 24 0 22.6569 0 21V3Z" fill="#D8E3F3"/>
<path d="M30.9824 7.52637H29.0964C28.5263 7.52637 28.0877 7.70181 27.8245 8.27198L24.228 16.4737H26.7719C26.7719 16.4737 27.2105 15.3772 27.2982 15.1141C27.5614 15.1141 30.0614 15.1141 30.4122 15.1141C30.5 15.4211 30.7193 16.4299 30.7193 16.4299H33L30.9824 7.52637ZM28 13.272C28.2193 12.7457 28.9649 10.772 28.9649 10.772C28.9649 10.8158 29.1842 10.2457 29.2719 9.93865L29.4473 10.7281C29.4473 10.7281 29.9298 12.8772 30.0175 13.3158H28V13.272Z" fill="#3362AB"/>
<path d="M24.4036 13.5351C24.4036 15.3772 22.7369 16.6053 20.1492 16.6053C19.0527 16.6053 18.0001 16.386 17.4299 16.1228L17.7808 14.1053L18.0878 14.2369C18.8773 14.5878 19.4036 14.7193 20.3685 14.7193C21.0703 14.7193 21.8159 14.4562 21.8159 13.8421C21.8159 13.4474 21.5089 13.1842 20.544 12.7457C19.6229 12.3071 18.3948 11.6053 18.3948 10.3334C18.3948 8.57899 20.1054 7.39478 22.5177 7.39478C23.4387 7.39478 24.2282 7.57021 24.7106 7.78951L24.3598 9.71934L24.1843 9.5439C23.7457 9.36846 23.1755 9.19302 22.3422 9.19302C21.4212 9.23688 20.9826 9.63162 20.9826 9.98249C20.9826 10.3772 21.5089 10.6842 22.3422 11.079C23.7457 11.7369 24.4036 12.4825 24.4036 13.5351Z" fill="#3362AB"/>
<path d="M3 7.61416L3.04386 7.43872H6.81579C7.3421 7.43872 7.73684 7.61416 7.86842 8.18433L8.70175 12.1317C7.86842 10.0264 5.9386 8.31591 3 7.61416Z" fill="#F9B50B"/>
<path d="M14.0088 7.52628L10.1931 16.4298H7.60534L5.41235 8.97365C6.9913 9.98242 8.30709 11.5614 8.78955 12.6579L9.0527 13.5789L11.4211 7.48242H14.0088V7.52628Z" fill="#3362AB"/>
<path d="M15.0175 7.48242H17.4298L15.8947 16.4298H13.4824L15.0175 7.48242Z" fill="#3362AB"/>
</g>
<defs>
<clipPath id="clip0_1365_6115">
<rect width="36" height="24" fill="white"/>
</clipPath>
</defs>
</svg>
