<svg width="24" height="24" viewBox="0 0 24 24" fill="none" xmlns="http://www.w3.org/2000/svg">
<path d="M12 21C16.9706 21 21 16.9706 21 12C21 7.02944 16.9706 3 12 3C7.02944 3 3 7.02944 3 12C3 16.9706 7.02944 21 12 21Z" stroke="#1D2939" stroke-width="1.5" stroke-linecap="round" stroke-linejoin="round"/>
<path d="M9.5 10.125C9.5 10.6082 9.10825 11 8.625 11C8.14175 11 7.75 10.6082 7.75 10.125C7.75 9.64175 8.14175 9.25 8.625 9.25C9.10825 9.25 9.5 9.64175 9.5 10.125Z" fill="#1D2939" stroke="#1D2939" stroke-width="0.125"/>
<path d="M14.25 10.125H16.5" stroke="#1D2939" stroke-width="1.5" stroke-linecap="round" stroke-linejoin="round"/>
<path d="M15.8996 14.25C15.5031 14.9331 14.9342 15.5 14.2498 15.8941C13.5653 16.2882 12.7894 16.4956 11.9996 16.4956C11.2098 16.4956 10.4339 16.2882 9.74945 15.8941C9.06501 15.5 8.49609 14.9331 8.09961 14.25" stroke="#1D2939" stroke-width="1.5" stroke-linecap="round" stroke-linejoin="round"/>
</svg>
